<svg xmlns="http://www.w3.org/2000/svg" version="1.1" xmlns:xlink="http://www.w3.org/1999/xlink" width="512" height="512" x="0" y="0" viewBox="0 0 479.529 479.529" style="enable-background:new 0 0 512 512" xml:space="preserve" class=""><g><path d="M421.188 199.726a3.971 3.971 0 0 0-.525-.265l-.16.04-3.48-1.76a26.32 26.32 0 0 0-29.4 3.6 47.199 47.199 0 0 1-52.72 4.84 4.001 4.001 0 0 0-4 6.8 50.922 50.922 0 0 0 26.6 7.08c1.76 0 3.56 0 5.32-.24a55.53 55.53 0 0 0 20.36-5.76h.36a16.68 16.68 0 0 1 15.64 5.92 4 4 0 0 0 6.4-4.8 23.352 23.352 0 0 0-12-8.24 18.28 18.28 0 0 1 20-2.08l3.48 1.72a4 4 0 0 0 4.125-6.855zM417.063 142.421c-43.72-12-80-4.48-90.08 18.48a4 4 0 0 0 2 5.28 4 4 0 0 0 5.278-2.035l.002-.005c8.4-18.88 41.56-24.64 80.68-14a4.003 4.003 0 1 0 2.12-7.72zM253.858 207.559l-.034-.059a4 4 0 0 0-5.48-1.32 47.121 47.121 0 0 1-52.88-5 26.36 26.36 0 0 0-29.24-3.44l-3.48 1.76a4 4 0 1 0 3.6 7.12l3.48-1.72a18.24 18.24 0 0 1 20 2.08 23.317 23.317 0 0 0-12 8.24 4 4 0 0 0 6.4 4.8 16.601 16.601 0 0 1 15.56-5.88h.36a55.564 55.564 0 0 0 20.36 5.72c1.76 0 3.56.24 5.32.24a50.676 50.676 0 0 0 26.56-7.08 4 4 0 0 0 1.474-5.461zM256.265 160.905l-.002-.005c-10.16-22.96-46.36-30.36-90.08-18.48a4.003 4.003 0 1 0 2.12 7.72c39.12-10.64 72.28-4.88 80.64 14a4 4 0 0 0 3.68 2.36 4.015 4.015 0 0 0 1.6-.32 3.999 3.999 0 0 0 2.042-5.275zM336.383 336.701a51.641 51.641 0 0 0-27.08-22.76 16.919 16.919 0 0 0-14.52 1.48 6.48 6.48 0 0 1-6.32 0 17.04 17.04 0 0 0-14.52-1.44 51.643 51.643 0 0 0-27.08 22.72 3.998 3.998 0 0 0 0 4c14.356 24.72 46.033 33.122 70.753 18.767a51.763 51.763 0 0 0 18.767-18.767 3.998 3.998 0 0 0 0-4zm-44.6 21.72a43.76 43.76 0 0 1-36.6-19.76 43.563 43.563 0 0 1 21.64-17.2 9 9 0 0 1 7.68.8 14.56 14.56 0 0 0 14.56 0 9 9 0 0 1 7.68-.8 43.397 43.397 0 0 1 21.64 17.2 43.762 43.762 0 0 1-36.6 19.76zM310.827 283.821a4 4 0 0 0-5.204 0c-7.634 7.644-20.018 7.652-27.662.018l-.018-.018a4 4 0 0 0-5.64 5.64 27.36 27.36 0 0 0 19.48 8 27.36 27.36 0 0 0 19.48-8 4 4 0 0 0-.436-5.64z" fill="#ffffff" opacity="1" data-original="#000000"></path><path d="M419.103 104.541c-12.96-10.28-56-43.24-68.48-52.72 1.68-1.92 3.32-4 4.88-5.96 9.16-12 18.08-36 18.44-37a4 4 0 0 0-7.48-2.76c0 .24-8.92 24-17.32 34.88-23.4 30.52-59.12 50.52-106.16 59l-88.32 18.24c-60.587 12.463-99.6 71.681-87.138 132.269a111.995 111.995 0 0 0 21.778 46.811l.24.32c7.56 8.92 15.44 17.8 23.04 26.4 39.52 44.64 76.84 86.8 55.28 121.4-3.12 5-18.16 19.16-36.4 18.08a4.007 4.007 0 0 0-.48 8h2.48a53.559 53.559 0 0 0 41.16-21.88c24.72-39.68-14.52-84-56-130.92-7.6-8.56-15.44-17.4-23-26.4-35.541-45.121-27.775-110.51 17.345-146.052a103.965 103.965 0 0 1 26.655-15.228v124a119.117 119.117 0 0 0 37.68 86.68l73.64 68.72a48.838 48.838 0 0 0 33.24 13.08h14.88a48.92 48.92 0 0 0 33.48-13.2l46.2-42.8v18.04a152.001 152.001 0 0 0 28.2 88.48 4 4 0 0 0 3.28 1.72 3.717 3.717 0 0 0 2.28-.76 4 4 0 0 0 .96-5.56 144.282 144.282 0 0 1-26.72-84v-23a4.002 4.002 0 0 0-.6-2l20-18.68a119.079 119.079 0 0 0 37.64-86.68v-112.56c32.208 46.672 36.66 107.112 11.64 158a4 4 0 0 0 1.827 5.354l.013.006a4.53 4.53 0 0 0 1.76.4 3.999 3.999 0 0 0 3.6-2.24c33.88-68.52 15.56-152.52-43.52-199.48zm16.72 28.8v121.72a110.84 110.84 0 0 1-35.12 80.8l-73.64 68.76a40.921 40.921 0 0 1-28 11.04h-14.88a40.921 40.921 0 0 1-28-11.04l-73.64-68.76a110.878 110.878 0 0 1-35.16-80.8v-126.72a113.99 113.99 0 0 1 8.88-2.28l88.24-18.2c42.64-8 76.44-24.68 100.72-50.08 11.64 8.88 56 42.64 68.92 53.04a150.364 150.364 0 0 1 21.92 21.44c-.15.343-.245.707-.28 1.08h.04zM96.983 27.101a4 4 0 0 0-5.6.68 141.042 141.042 0 0 0-25.84 111.72 4 4 0 0 0 4 3.32h.72a4 4 0 0 0 3.241-4.637l-.001-.003a132.882 132.882 0 0 1 24.16-105.48 3.999 3.999 0 0 0-.68-5.6zM95.198 109.987l-.014-.006a4 4 0 0 0-5.28 2.32 154.023 154.023 0 0 0-8.92 29.48 4 4 0 0 0 3.16 4.68c.252.039.508.039.76 0a4.001 4.001 0 0 0 4-3.24 143.588 143.588 0 0 1 8.44-28 4 4 0 0 0-2.146-5.234z" fill="#ffffff" opacity="1" data-original="#000000"></path><path d="M294.278 44.157a3.998 3.998 0 0 0-5.974-.296v-.12a108.883 108.883 0 0 1-54.16 25.8 4.016 4.016 0 0 0 .72 8h.76a116.481 116.481 0 0 0 58.04-27.76 4.001 4.001 0 0 0 .614-5.624zM314.223 16.381a4.013 4.013 0 0 0-5.48 1.48l.08.08a111.767 111.767 0 0 1-7.52 11.52 4 4 0 0 0 3.2 6.4 4 4 0 0 0 3.2-1.64 113.283 113.283 0 0 0 8-12.36 4.013 4.013 0 0 0-1.48-5.48zM84.543 371.261l-38.36-16.68c-20.68-9.16-33.92-24-38.28-42.88a4.002 4.002 0 1 0-7.8 1.8c3.44 14.96 13.68 35.48 42.84 48.4l38.4 16.72c41.2 18 60.48 38.92 57.24 62.2a4 4 0 0 0 3.407 4.516l.033.004h.56a4 4 0 0 0 4-3.48c4-27.28-17.08-51.04-62.04-70.6z" fill="#ffffff" opacity="1" data-original="#000000"></path></g></svg>