<svg xmlns="http://www.w3.org/2000/svg" version="1.1" xmlns:xlink="http://www.w3.org/1999/xlink" width="512" height="512" x="0" y="0" viewBox="0 0 512 512" style="enable-background:new 0 0 512 512" xml:space="preserve" class=""><g><path fill="#e0c184" d="M467.35 319.31c-.55 2.45-18.41 80.69-66.23 108.61C377 443 333.69 453 284.3 453s-92.7-10-116.82-25.08a4.5 4.5 0 0 1-.43-.27c-47.51-28.13-65.26-105.91-65.8-108.34 6.43 20 34.48 37.4 74.88 48.66 30.4 8.46 67.78 13.46 108.17 13.46s77.77-5 108.17-13.46c40.4-11.26 68.45-28.67 74.88-48.66z" opacity="1" data-original="#ca1712" class=""></path><ellipse cx="284.3" cy="310.54" fill="#9b755b" rx="184.44" ry="70.89" opacity="1" data-original="#ff3834" class=""></ellipse><path fill="#e0c184" d="M468.13 316.31c-2.93 14-16.5 26.91-37.61 37.45-16-7-34-17.63-53.06-31.34 13.8-5.66 21.94-12.62 21.94-20.16 0-15.8-35.82-29.11-84.57-33.1q-12.56-12.29-25-25.83c-1.13-1.23-2.24-2.46-3.35-3.68 31.67.14 61.42 3.35 87.34 8.89 33.5 30.8 66.51 54.29 94.31 67.77z" opacity="1" data-original="#b10503" class=""></path><ellipse cx="284.3" cy="302.26" fill="#e0c184" rx="115.1" ry="34.32" opacity="1" data-original="#fff2fd" class=""></ellipse><path fill="#e0c184" d="M399.4 302.26c0 7.54-8.14 14.5-21.94 20.16a554.88 554.88 0 0 1-62.63-53.26c48.75 3.99 84.57 17.3 84.57 33.1z" opacity="1" data-original="#f9b7c3" class=""></path><ellipse cx="382.02" cy="167.17" fill="#e0c184" rx="57.82" ry="180.57" transform="rotate(-42.78 381.681 167.212)" opacity="1" data-original="#ca1712" class=""></ellipse><path fill="#9b755b" d="m502.29 301.58-35.59 27.23c-24.15 20.91-98.4-21.69-165.83-95.15s-102.52-150-78.36-170.89l1.82-1.4 35.59-27.23c-6 5.22-8.35 13.87-7.43 25.07 2.75 33.76 35.15 90.66 85.79 145.84 49 53.32 101.49 90.38 135.85 98.7 11.87 2.86 21.52 2.31 28.16-2.17z" opacity="1" data-original="#ff3834" class=""></path><path fill="#e0c184" d="M441 504.57a25.81 25.81 0 0 1-36.22 0L128.4 232.86a31.9 31.9 0 0 1 0-45.47 31.9 31.9 0 0 1 45.46.68l267.72 280.28a25.82 25.82 0 0 1-.58 36.22z" opacity="1" data-original="#b10503" class=""></path><g fill="#900906"><path d="M119 212.77a30.07 30.07 0 0 1 0-5.77 31.78 31.78 0 0 0 0 5.77zM119.33 215.48a33.31 33.31 0 0 0 .8 3.53 25.36 25.36 0 0 1-.8-3.53zM119.76 202.63c-.11.43-.21.86-.3 1.3.09-.44.18-.88.29-1.32zM120.9 221.33c.28.77.6 1.52.95 2.27-.36-.75-.67-1.5-.95-2.27z" fill="#9b755b" opacity="1" data-original="#900906" class=""></path><path d="M441 504.57a25.81 25.81 0 0 1-36.22 0L200 303.25l-71.6-70.39c-.33-.32-.65-.65-1-1s-.38-.41-.55-.62-.32-.35-.47-.53l-.47-.57a31.65 31.65 0 0 1-2.4-3.4c-.12-.19-.23-.38-.34-.57s-.37-.63-.53-.95c-.06-.09-.1-.18-.15-.27-.14-.25-.27-.51-.39-.77s-.2-.4-.29-.6c-.35-.75-.67-1.5-.95-2.27-.14-.36-.27-.73-.39-1.1v-.13c-.12-.36-.23-.73-.34-1.09a33.31 33.31 0 0 1-.8-3.53c-.07-.41-.13-.81-.19-1.22a1.49 1.49 0 0 1 0-.21c0-.4-.09-.81-.13-1.22a31.78 31.78 0 0 1 0-5.77c0-.5.11-1 .18-1.51v-.09c.08-.48.16-1 .25-1.42.09-.44.19-.87.3-1.3a31.88 31.88 0 0 1 31-24.42 31.27 31.27 0 0 1 5.79.54 31.66 31.66 0 0 1 17.28 9.32l69.36 72.61-24.41 24.07a15.41 15.41 0 0 0 0 22l186 182.88a25.83 25.83 0 0 0 42.8-10.9 25.81 25.81 0 0 1-6.56 25.75z" fill="#9b755b" opacity="1" data-original="#900906" class=""></path></g><path fill="#9b755b" d="m159.22 174.9-43.43 43.84c-4.05 4.08-10.7 4.59-16.35 1.27l-84.61-49.83a40.37 40.37 0 0 1-6.54-55.77A248 248 0 0 1 58 65.4a40.36 40.36 0 0 1 55.47 7.14l46.85 85.86c3.43 5.67 2.97 12.39-1.1 16.5z" opacity="1" data-original="#ff3834" class=""></path><path fill="#e0c184" d="m159.22 174.9-43.43 43.84c-4.05 4.08-10.7 4.59-16.35 1.27l-84.61-49.83a40.35 40.35 0 0 1-7.17-54.9 36.82 36.82 0 0 0 12.88 35.59l77.35 45.56c5.16 3 11.24 2.56 14.94-1.16l39.7-40.08a10.66 10.66 0 0 0 2.93-5.76l4.89 9c3.4 5.64 2.94 12.36-1.13 16.47z" opacity="1" data-original="#ca1712" class=""></path><rect width="92.17" height="119.17" x="126.55" y="172.93" fill="#e0c184" rx="6.75" transform="rotate(-44.6 172.589 232.544)" opacity="1" data-original="#fff2fd" class=""></rect><path fill="#e0c184" d="m242.48 247.34-56 55.23a6.77 6.77 0 0 1-9.55-.07l-74.18-75.25a6.75 6.75 0 0 1 .07-9.55l11.57-11.4a5.8 5.8 0 0 0 .51 7.53l63.68 64.59a5.79 5.79 0 0 0 8.19.06l48.09-47.4a4.69 4.69 0 0 0 .51-.59l7.2 7.3a6.75 6.75 0 0 1-.09 9.55z" opacity="1" data-original="#f9b7c3" class=""></path></g></svg>