<svg xmlns="http://www.w3.org/2000/svg" version="1.1" xmlns:xlink="http://www.w3.org/1999/xlink" width="512" height="512" x="0" y="0" viewBox="0 0 512 512" style="enable-background:new 0 0 512 512" xml:space="preserve" class=""><g><path d="M256 105.439s-70.623 60.136-70.623 134.317c0 74.181 70.623 134.317 70.623 134.317s70.623-60.136 70.623-134.317c0-74.181-70.623-134.317-70.623-134.317z" fill="#e0c184" opacity="1" data-original="#000000" class=""></path><path d="M196.416 352.363c-11.646-16.033-20.98-32.484-27.742-48.897-8.823-21.415-13.297-42.85-13.297-63.711 0-20.861 4.474-42.296 13.297-63.711.158-.383.324-.766.484-1.148-36.615-15.625-70.846-18.308-70.846-18.308s-21.876 90.14 21.668 150.197c21.836 30.116 55.972 46.946 84.584 56.244a282.799 282.799 0 0 1-8.148-10.666zM195.018 391.473c-18.84-6.145-36.053-13.985-51.162-23.302-19.713-12.158-35.918-26.886-48.163-43.775-12.236-16.877-21.193-36.84-26.621-59.337C29.739 274.125 0 292.659 0 292.659s35.904 85.526 106.596 108.008c35.684 11.348 73.405 4.462 102.02-5.139a283.982 283.982 0 0 1-13.598-4.055zM413.687 156.59s-34.23 2.683-70.846 18.308c.161.383.327.766.484 1.148 8.824 21.414 13.298 42.85 13.298 63.71 0 20.861-4.474 42.296-13.297 63.711-6.762 16.412-16.096 32.863-27.742 48.897a283.61 283.61 0 0 1-8.148 10.666c28.612-9.298 62.749-26.128 84.583-56.243 43.544-60.057 21.668-150.197 21.668-150.197zM442.927 265.059c-5.428 22.497-14.384 42.46-26.621 59.337-12.245 16.889-28.449 31.616-48.163 43.775-15.108 9.318-32.322 17.158-51.162 23.302a283.982 283.982 0 0 1-13.598 4.055c28.615 9.602 66.336 16.488 102.02 5.139C476.096 378.185 512 292.659 512 292.659s-29.739-18.534-69.073-27.6z" fill="#e0c184" opacity="1" data-original="#000000" class=""></path></g></svg>